<svg xmlns="http://www.w3.org/2000/svg" version="1.1" xmlns:xlink="http://www.w3.org/1999/xlink" xmlns:svgjs="http://svgjs.dev/svgjs" width="2000" height="2110" viewBox="0 0 2000 2110"><g transform="matrix(1,0,0,1,-3.3670107589135796,-3.4007570632848)"><svg viewBox="0 0 235 248" data-background-color="#000000" preserveAspectRatio="xMidYMid meet" height="2110" width="2000" xmlns="http://www.w3.org/2000/svg" xmlns:xlink="http://www.w3.org/1999/xlink"><g id="tight-bounds" transform="matrix(1,0,0,1,0.3956237641723419,0.39992084111409554)"><svg viewBox="0 0 234.20875247165534 247.2" height="247.2" width="234.20875247165534"><rect width="234.20875247165534" height="247.20036932395953" fill="#000000" mask="url(#00408496-3345-4eca-9bf0-17a85418c80d)" data-fill-palette-color="tertiary"></rect><g><svg viewBox="0 0 234.20875247165534 247.2" height="247.2" width="234.20875247165534"><g><svg viewBox="0 0 234.20875247165534 247.2" height="247.2" width="234.20875247165534"><g id="textblocktransform"><svg viewBox="0 0 234.20875247165534 247.2" height="247.2" width="234.20875247165534" id="textblock"><g><svg viewBox="0 0 234.20875247165534 247.2" height="247.2" width="234.20875247165534"><path d="M233.66 53.02C232.559 27.36 229.421 20.227 229.421 20.227 219.787-6.202 207.763-0.506 196.962 3.292 177.891 3.446 158.898 9.091 139.872 12.119 99.936 12.581 59.659 4.986 19.922 23.717 16.189 29.464-3.872 24.846 0.664 56.304 1.853 69.39 6.191 83.913 6.059 95.922 6.654 98.026 7.48 93.202 7.832 96.23 9.065 104.39 11.08 100.541 12.732 105.365 10.43 118.246 12.082 128.971 13.657 140.21 10.882 143.135 7.325 141.749 5.729 151.449 5.564 158.479 4.672 157.145 3.692 156.837 2.976 156.632 1.534 157.402 1.776 159.608 2.602 167.152-0.944 171.514 1.281 178.904-0.25 186.91 2.338 193.838 1.985 202.511 1.941 204.255 2.183 205.744 2.569 206.154 4.275 208.361 1.787 212.672 2.051 217.342 19.558 249.262 38.552 227.195 56.488 241.872 61.145 231.608 57.644 245.516 59.505 243.36 60.958 240.846 62.015 251.263 63.656 245.362 63.909 243.668 63.524 239.665 64.427 240.435 64.9 240.846 65.319 240.743 65.385 238.382 65.484 234.841 64.614 237.048 64.383 235.201 66.882 225.861 66.265 248.081 68.611 247.158 68.501 244.438 67.818 240.538 69.216 241.051 70.604 237.151 70.648 233.918 71.881 242.693 71.925 244.592 72.145 245.926 72.497 246.85 76.351 237.305 80.183 250.237 84.224 245.926 86.701 241.205 89.08 248.492 91.59 246.696 92.471 245.259 93.363 242.693 94.21 247.004 104.594 247.928 115.659 244.079 125.503 247.158 151.807 241.41 179.917 249.518 207.653 241.923 214.194 238.998 220.987 234.841 227.362 231.506 227.362 231.506 232.526 222.371 232.526 181.316S233.627 145.393 233.793 112.703C233.958 80.013 234.728 78.679 233.627 53.02Z" opacity="1" fill="#000000" data-fill-palette-color="tertiary"></path><g transform="matrix(1,0,0,1,55.76832,26.230666666666668)"><svg width="122.67211247165534" viewBox="2.45 -35.8 23.150000000000002 36.75" height="194.73866666666666" data-palette-color="#000000"><path d="M12.9 0.95L12.9 0.95Q10.05 0.95 7.28 0.55 4.5 0.15 2.45-0.8L2.45-0.8Q2.45-2.95 2.78-5.13 3.1-7.3 3.75-9.5L3.75-9.5Q3.9-9.5 4.05-9.53 4.2-9.55 4.4-9.55L4.4-9.55Q5.3-9.55 5.95-9.25L5.95-9.25 6.75-2.6Q7.7-2.4 9.08-2.13 10.45-1.85 12.15-1.85L12.15-1.85Q13.95-1.85 15.85-2.3 17.75-2.75 19.05-3.93 20.35-5.1 20.35-7.3L20.35-7.3Q20.35-8.6 20.08-9.65 19.8-10.7 18.85-11.7 17.9-12.7 15.95-13.83 14-14.95 10.65-16.4L10.65-16.4Q7.05-18 5.33-19.6 3.6-21.2 3.1-22.98 2.6-24.75 2.6-26.8L2.6-26.8Q2.6-29.95 4.42-31.93 6.25-33.9 9.2-34.85 12.15-35.8 15.45-35.8L15.45-35.8Q17.65-35.8 19.85-35.43 22.05-35.05 23.95-34.3L23.95-34.3Q24.05-32 23.58-29.93 23.1-27.85 22.4-25.85L22.4-25.85Q22.25-25.8 22.08-25.8 21.9-25.8 21.75-25.8L21.75-25.8Q20.9-25.8 20.2-26.1L20.2-26.1 19.65-32.75Q18.6-33.05 17.45-33.23 16.3-33.4 15.15-33.4L15.15-33.4Q13.2-33.4 11.4-32.83 9.6-32.25 8.47-31 7.35-29.75 7.35-27.65L7.35-27.65Q7.35-26.25 7.85-25.13 8.35-24 9.88-22.93 11.4-21.85 14.5-20.45L14.5-20.45Q18.4-18.75 20.85-17.25 23.3-15.75 24.45-13.8 25.6-11.85 25.6-8.7L25.6-8.7Q25.6-6.25 24.5-4.42 23.4-2.6 21.55-1.43 19.7-0.25 17.45 0.35 15.2 0.95 12.9 0.95Z" opacity="1" transform="matrix(1,0,0,1,0,0)" fill="#ffffff" class="wordmark-text-0" data-fill-palette-color="quaternary" id="text-0"></path></svg></g></svg></g></svg></g></svg></g><g></g></svg></g><defs></defs><mask id="00408496-3345-4eca-9bf0-17a85418c80d"><g id="SvgjsG2717"><svg viewBox="0 0 234.20875247165534 247.2" height="247.2" width="234.20875247165534"><g><svg viewBox="0 0 234.20875247165534 247.2" height="247.2" width="234.20875247165534"><g><svg viewBox="0 0 234.20875247165534 247.2" height="247.2" width="234.20875247165534"><g id="SvgjsG2716"><svg viewBox="0 0 234.20875247165534 247.2" height="247.2" width="234.20875247165534" id="SvgjsSvg2715"><g><svg viewBox="0 0 234.20875247165534 247.2" height="247.2" width="234.20875247165534"><path d="M233.66 53.02C232.559 27.36 229.421 20.227 229.421 20.227 219.787-6.202 207.763-0.506 196.962 3.292 177.891 3.446 158.898 9.091 139.872 12.119 99.936 12.581 59.659 4.986 19.922 23.717 16.189 29.464-3.872 24.846 0.664 56.304 1.853 69.39 6.191 83.913 6.059 95.922 6.654 98.026 7.48 93.202 7.832 96.23 9.065 104.39 11.08 100.541 12.732 105.365 10.43 118.246 12.082 128.971 13.657 140.21 10.882 143.135 7.325 141.749 5.729 151.449 5.564 158.479 4.672 157.145 3.692 156.837 2.976 156.632 1.534 157.402 1.776 159.608 2.602 167.152-0.944 171.514 1.281 178.904-0.25 186.91 2.338 193.838 1.985 202.511 1.941 204.255 2.183 205.744 2.569 206.154 4.275 208.361 1.787 212.672 2.051 217.342 19.558 249.262 38.552 227.195 56.488 241.872 61.145 231.608 57.644 245.516 59.505 243.36 60.958 240.846 62.015 251.263 63.656 245.362 63.909 243.668 63.524 239.665 64.427 240.435 64.9 240.846 65.319 240.743 65.385 238.382 65.484 234.841 64.614 237.048 64.383 235.201 66.882 225.861 66.265 248.081 68.611 247.158 68.501 244.438 67.818 240.538 69.216 241.051 70.604 237.151 70.648 233.918 71.881 242.693 71.925 244.592 72.145 245.926 72.497 246.85 76.351 237.305 80.183 250.237 84.224 245.926 86.701 241.205 89.08 248.492 91.59 246.696 92.471 245.259 93.363 242.693 94.21 247.004 104.594 247.928 115.659 244.079 125.503 247.158 151.807 241.41 179.917 249.518 207.653 241.923 214.194 238.998 220.987 234.841 227.362 231.506 227.362 231.506 232.526 222.371 232.526 181.316S233.627 145.393 233.793 112.703C233.958 80.013 234.728 78.679 233.627 53.02Z" opacity="1" fill="white"></path><g transform="matrix(1,0,0,1,55.76832,26.230666666666668)"><svg width="122.67211247165534" viewBox="2.45 -35.8 23.150000000000002 36.75" height="194.73866666666666" data-palette-color="#000000"><path d="M12.9 0.95L12.9 0.95Q10.05 0.95 7.28 0.55 4.5 0.15 2.45-0.8L2.45-0.8Q2.45-2.95 2.78-5.13 3.1-7.3 3.75-9.5L3.75-9.5Q3.9-9.5 4.05-9.53 4.2-9.55 4.4-9.55L4.4-9.55Q5.3-9.55 5.95-9.25L5.95-9.25 6.75-2.6Q7.7-2.4 9.08-2.13 10.45-1.85 12.15-1.85L12.15-1.85Q13.95-1.85 15.85-2.3 17.75-2.75 19.05-3.93 20.35-5.1 20.35-7.3L20.35-7.3Q20.35-8.6 20.08-9.65 19.8-10.7 18.85-11.7 17.9-12.7 15.95-13.83 14-14.95 10.65-16.4L10.65-16.4Q7.05-18 5.33-19.6 3.6-21.2 3.1-22.98 2.6-24.75 2.6-26.8L2.6-26.8Q2.6-29.95 4.42-31.93 6.25-33.9 9.2-34.85 12.15-35.8 15.45-35.8L15.45-35.8Q17.65-35.8 19.85-35.43 22.05-35.05 23.95-34.3L23.95-34.3Q24.05-32 23.58-29.93 23.1-27.85 22.4-25.85L22.4-25.85Q22.25-25.8 22.08-25.8 21.9-25.8 21.75-25.8L21.75-25.8Q20.9-25.8 20.2-26.1L20.2-26.1 19.65-32.75Q18.6-33.05 17.45-33.23 16.3-33.4 15.15-33.4L15.15-33.4Q13.2-33.4 11.4-32.83 9.6-32.25 8.47-31 7.35-29.75 7.35-27.65L7.35-27.65Q7.35-26.25 7.85-25.13 8.35-24 9.88-22.93 11.4-21.85 14.5-20.45L14.5-20.45Q18.4-18.75 20.85-17.25 23.3-15.75 24.45-13.8 25.6-11.85 25.6-8.7L25.6-8.7Q25.6-6.25 24.5-4.42 23.4-2.6 21.55-1.43 19.7-0.25 17.45 0.35 15.2 0.95 12.9 0.95Z" opacity="1" transform="matrix(1,0,0,1,0,0)" fill="black" class="wordmark-text-0" id="SvgjsPath2714"></path></svg></g></svg></g></svg></g></svg></g><g></g></svg></g><defs><mask></mask></defs></svg><rect width="234.20875247165534" height="247.2" fill="black" stroke="none" visibility="hidden"></rect></g></mask><linearGradient x1="0" x2="1" y1="0.5" y2="0.5" id="ed4b59be-56c5-4178-83e5-fb5750c4e09c"><stop stop-color="#f00b51" offset="0"></stop><stop stop-color="#730062" offset="1"></stop></linearGradient></svg><rect width="234.20875247165534" height="247.2" fill="none" stroke="none" visibility="hidden"></rect></g></svg></g></svg>